simulation
nRows=37
nColumns=15
endheader
time  TH_x TH_y TH_z SC_y  SC_z  SC_x  AC_y  AC_z  AC_x  GH_y  GH_z  GH_yy  EL_x  PS_y
0.250064  0.000000  0.000000  0.000000  -24.314195  17.188574  -10.000000  52.343557  27.469655  19.251635  -2.325006  39.178594  2.296859  21.431043  111.397585
0.250321  0.000000  0.000000  0.000000  -24.314195  17.188574  -5.714286  53.589664  24.047666  16.386013  -2.325006  39.178594  2.296859  21.431043  111.397585
0.250577  0.000000  0.000000  0.000000  -24.314195  17.188574  -1.428571  54.621266  20.575126  13.670358  -2.325006  39.178594  2.296859  21.431043  111.397585
0.250834  0.000000  0.000000  0.000000  -24.314195  17.188574  2.857143  55.458558  17.062119  11.076321  -2.325006  39.178594  2.296859  21.431043  111.397585
0.251090  0.000000  0.000000  0.000000  -24.314195  17.188574  7.142857  56.117619  13.517407  8.578620  -2.325006  39.178594  2.296859  21.431043  111.397585
0.251346  0.000000  0.000000  0.000000  -24.314195  17.188574  11.428571  56.610890  9.948682  6.154441  -2.325006  39.178594  2.296859  21.431043  111.397585
0.251603  0.000000  0.000000  0.000000  -24.314195  17.188574  15.714286  56.947550  6.362884  3.782835  -2.325006  39.178594  2.296859  21.431043  111.397585
0.251859  0.000000  0.000000  0.000000  -24.314195  17.188574  20.000000  57.133785  2.766423  1.444181  -2.325006  39.178594  2.296859  21.431043  111.397585
0.252116  0.000000  0.000000  0.000000  -24.314195  17.188574  24.285714  57.172995  -0.834607  -0.880302  -2.325006  39.178594  2.296859  21.431043  111.397585
0.252372  0.000000  0.000000  0.000000  -24.314195  17.188574  28.571429  57.065895  -4.434261  -3.209050  -2.325006  39.178594  2.296859  21.431043  111.397585
0.252629  0.000000  0.000000  0.000000  -24.314195  17.188574  32.857143  56.810524  -8.026555  -5.560599  -2.325006  39.178594  2.296859  21.431043  111.397585
0.252885  0.000000  0.000000  0.000000  -24.314195  17.188574  37.142857  56.402222  -11.605265  -7.954065  -2.325006  39.178594  2.296859  21.431043  111.397585
0.253142  0.000000  0.000000  0.000000  -24.314195  17.188574  41.428571  55.833442  -15.163764  -10.409617  -2.325006  39.178594  2.296859  21.431043  111.397585
0.253398  0.000000  0.000000  0.000000  -24.314195  17.188574  45.714286  55.093530  -18.694787  -12.949002  -2.325006  39.178594  2.296859  21.431043  111.397585
0.253655  0.000000  0.000000  0.000000  -24.314195  17.188574  50.000000  54.168417  -22.190194  -15.596092  -2.325006  39.178594  2.296859  21.431043  111.397585
0.253911  0.000000  0.000000  0.000000  -26.133307  20.723952  -10.000000  47.721537  34.824655  32.945353  -5.520067  38.622268  1.888847  30.729705  129.540660
0.254168  0.000000  0.000000  0.000000  -26.133307  20.723952  -5.714286  49.576426  31.606394  29.561249  -5.520067  38.622268  1.888847  30.729705  129.540660
0.254424  0.000000  0.000000  0.000000  -26.133307  20.723952  -1.428571  51.152786  28.304944  26.406210  -5.520067  38.622268  1.888847  30.729705  129.540660
0.254681  0.000000  0.000000  0.000000  -26.133307  20.723952  2.857143  52.481282  24.935376  23.443112  -5.520067  38.622268  1.888847  30.729705  129.540660
0.254937  0.000000  0.000000  0.000000  -26.133307  20.723952  7.142857  53.587597  21.510367  20.639120  -5.520067  38.622268  1.888847  30.729705  129.540660
0.255194  0.000000  0.000000  0.000000  -26.133307  20.723952  11.428571  54.492863  18.040713  17.965138  -5.520067  38.622268  1.888847  30.729705  129.540660
0.255450  0.000000  0.000000  0.000000  -26.133307  20.723952  15.714286  55.214113  14.535748  15.395197  -5.520067  38.622268  1.888847  30.729705  129.540660
0.255707  0.000000  0.000000  0.000000  -26.133307  20.723952  20.000000  55.764663  11.003659  12.905899  -5.520067  38.622268  1.888847  30.729705  129.540660
0.255963  0.000000  0.000000  0.000000  -26.133307  20.723952  24.285714  56.154597  7.451790  10.475787  -5.520067  38.622268  1.888847  30.729705  129.540660
0.256220  0.000000  0.000000  0.000000  -26.133307  20.723952  28.571429  56.390935  3.886884  8.084873  -5.520067  38.622268  1.888847  30.729705  129.540660
0.256476  0.000000  0.000000  0.000000  -26.133307  20.723952  32.857143  56.477909  0.315287  5.714130  -5.520067  38.622268  1.888847  30.729705  129.540660
0.256732  0.000000  0.000000  0.000000  -26.133307  20.723952  37.142857  56.417057  -3.256849  3.345015  -5.520067  38.622268  1.888847  30.729705  129.540660
0.256989  0.000000  0.000000  0.000000  -26.133307  20.723952  41.428571  56.207314  -6.823389  0.959025  -5.520067  38.622268  1.888847  30.729705  129.540660
0.257245  0.000000  0.000000  0.000000  -26.133307  20.723952  45.714286  55.844908  -10.378030  -1.462762  -5.520067  38.622268  1.888847  30.729705  129.540660
0.257502  0.000000  0.000000  0.000000  -26.133307  20.723952  50.000000  55.323339  -13.914126  -3.940093  -5.520067  38.622268  1.888847  30.729705  129.540660
0.257758  0.000000  0.000000  0.000000  -36.416827  16.177574  -10.000000  52.169180  43.216233  21.604316  -7.224900  38.709422  -17.409574  26.259208  115.985434
0.258015  0.000000  0.000000  0.000000  -36.416827  16.177574  -5.714286  54.436068  39.778685  18.185170  -7.224900  38.709422  -17.409574  26.259208  115.985434
0.258271  0.000000  0.000000  0.000000  -36.416827  16.177574  -1.428571  56.339957  36.250460  15.095673  -7.224900  38.709422  -17.409574  26.259208  115.985434
0.258528  0.000000  0.000000  0.000000  -36.416827  16.177574  2.857143  57.936046  32.649703  12.275952  -7.224900  38.709422  -17.409574  26.259208  115.985434
0.258784  0.000000  0.000000  0.000000  -36.416827  16.177574  7.142857  59.268751  28.990824  9.676427  -7.224900  38.709422  -17.409574  26.259208  115.985434
0.259041  0.000000  0.000000  0.000000  -36.416827  16.177574  11.428571  60.373578  25.285378  7.255848  -7.224900  38.709422  -17.409574  26.259208  115.985434
0.259297  0.000000  0.000000  0.000000  -36.416827  16.177574  15.714286  61.278664  21.542805  4.979652  -7.224900  38.709422  -17.409574  26.259208  115.985434
